<svg xmlns="http://www.w3.org/2000/svg" role="img" aria-label="Baqty Saver" viewBox="0 0 256 256">
                
                <g transform="translate(1.4065934065934016 1.4065934065934016) scale(2.81 2.81)">

                    <path d="M 49.66 1.125 L 49.66 1.125 c 4.67 -2.393 10.394 -0.859 13.243 3.548 l 0 0 c 1.784 2.761 4.788 4.495 8.071 4.66 l 0 0 c 5.241 0.263 9.431 4.453 9.694 9.694 v 0 c 0.165 3.283 1.899 6.286 4.66 8.071 l 0 0 c 4.407 2.848 5.941 8.572 3.548 13.242 l 0 0 c -1.499 2.926 -1.499 6.394 0 9.319 l 0 0 c 2.393 4.67 0.859 10.394 -3.548 13.242 l 0 0 c -2.761 1.784 -4.495 4.788 -4.66 8.071 v 0 c -0.263 5.241 -4.453 9.431 -9.694 9.694 h 0 c -3.283 0.165 -6.286 1.899 -8.071 4.66 l 0 0 c -2.848 4.407 -8.572 5.941 -13.242 3.548 l 0 0 c -2.926 -1.499 -6.394 -1.499 -9.319 0 l 0 0 c -4.67 2.393 -10.394 0.859 -13.242 -3.548 l 0 0 c -1.784 -2.761 -4.788 -4.495 -8.071 -4.66 h 0 c -5.241 -0.263 -9.431 -4.453 -9.694 -9.694 l 0 0 c -0.165 -3.283 -1.899 -6.286 -4.66 -8.071 l 0 0 C 0.266 60.054 -1.267 54.33 1.125 49.66 l 0 0 c 1.499 -2.926 1.499 -6.394 0 -9.319 l 0 0 c -2.393 -4.67 -0.859 -10.394 3.548 -13.242 l 0 0 c 2.761 -1.784 4.495 -4.788 4.66 -8.071 l 0 0 c 0.263 -5.241 4.453 -9.431 9.694 -9.694 l 0 0 c 3.283 -0.165 6.286 -1.899 8.071 -4.66 l 0 0 c 2.848 -4.407 8.572 -5.941 13.242 -3.548 l 0 0 C 43.266 2.624 46.734 2.624 49.66 1.125 z" style="stroke: none; fill: rgb(0,131,249);"/>

                    <g>
                        
                        
                        <g transform="translate(0, -10)">
                            <path d="M 27 60 A 18 18 0 0 1 63 60" fill="none" stroke="rgba(255, 255, 255, 0.3)" stroke-width="6" stroke-linecap="round"/>
                            
                            <path d="M 27 60 A 18 18 0 0 1 32.3 47.3" fill="none" stroke="#ffffff" stroke-width="6" stroke-linecap="round"/>
                            
                            <path d="M 45 60 L 32.3 47.3" fill="none" stroke="#ffffff" stroke-width="3" stroke-linecap="round"/>
                            
                            <circle cx="45" cy="60" r="4" fill="#ffffff" stroke="none"/>
                        </g>
                    </g>
                </g>
            </svg>